<?xml version="1.0"?>
<svg xmlns="http://www.w3.org/2000/svg" width="512px" height="512px" viewBox="0 0 128 128"><g><g><path d="M32.75,51.342A12.375,12.375,0,1,0,20.375,63.717,12.39,12.39,0,0,0,32.75,51.342ZM20.375,60.217a8.875,8.875,0,1,1,8.875-8.875A8.885,8.885,0,0,1,20.375,60.217Z" data-original="#000000" class="active-path" data-old_color="#000000" fill="#BC5B5A"/><path d="M40.75,51.342A20.375,20.375,0,1,0,14.625,70.879v4H5.718a1.75,1.75,0,0,0-1.75,1.75v8a1.75,1.75,0,0,0,1.75,1.75h8.907v8.908a1.75,1.75,0,0,0,1.75,1.75h8a1.75,1.75,0,0,0,1.75-1.75V86.375h8.908a1.75,1.75,0,0,0,1.75-1.75v-8a1.75,1.75,0,0,0-1.75-1.75H26.125v-4A20.509,20.509,0,0,0,40.75,51.342ZM24.375,78.375h8.908v4.5H24.375a1.75,1.75,0,0,0-1.75,1.75v8.908h-4.5V84.625a1.75,1.75,0,0,0-1.75-1.75H7.468v-4.5h8.907a1.75,1.75,0,0,0,1.75-1.75v-7.1a1.748,1.748,0,0,0-1.374-1.708,16.875,16.875,0,1,1,7.248,0,1.748,1.748,0,0,0-1.374,1.708v7.1A1.75,1.75,0,0,0,24.375,78.375Z" data-original="#000000" class="active-path" data-old_color="#000000" fill="#BC5B5A"/><path d="M107.625,64.283A12.375,12.375,0,1,0,120,76.658,12.389,12.389,0,0,0,107.625,64.283Zm0,21.25a8.875,8.875,0,1,1,8.875-8.875A8.885,8.885,0,0,1,107.625,85.533Z" data-original="#000000" class="active-path" data-old_color="#000000" fill="#BC5B5A"/><path d="M113.375,57.121V45.6H118a1.75,1.75,0,0,0,1.28-2.943L108.905,31.524a1.8,1.8,0,0,0-2.56,0L95.97,42.652A1.75,1.75,0,0,0,97.25,45.6h4.625V57.121a20.375,20.375,0,1,0,11.5,0Zm-5.75,36.412A16.87,16.87,0,0,1,104,60.185a1.748,1.748,0,0,0,1.374-1.708V43.845a1.75,1.75,0,0,0-1.75-1.75h-2.351l6.351-6.811,6.351,6.811h-2.351a1.75,1.75,0,0,0-1.75,1.75V58.477a1.748,1.748,0,0,0,1.374,1.708,16.87,16.87,0,0,1-3.624,33.348Z" data-original="#000000" class="active-path" data-old_color="#000000" fill="#BC5B5A"/><path d="M77.406,49.125H50.594a1.75,1.75,0,0,0-1.75,1.75v8a1.75,1.75,0,0,0,1.75,1.75H77.406a1.75,1.75,0,0,0,1.75-1.75v-8A1.75,1.75,0,0,0,77.406,49.125Zm-1.75,8H52.344v-4.5H75.656Z" data-original="#000000" class="active-path" data-old_color="#000000" fill="#BC5B5A"/><path d="M77.406,66.254H50.594A1.75,1.75,0,0,0,48.844,68v8a1.75,1.75,0,0,0,1.75,1.75H77.406A1.75,1.75,0,0,0,79.156,76V68A1.75,1.75,0,0,0,77.406,66.254Zm-1.75,8H52.344v-4.5H75.656Z" data-original="#000000" class="active-path" data-old_color="#000000" fill="#BC5B5A"/></g></g> </svg>
